<svg xmlns="http://www.w3.org/2000/svg" viewBox="0 0 800 800">
    <style>
      .cls-1 {
        fill: #72d2fd;
	stroke: #72d2fd;
      }

      .cls-2 {
        fill: #97dcfa;
	stroke: #97dcfa;
      }

      .cls-3 {
        fill: #1d9aef;
	stroke: #1d9aef;
      }

      .cls-4 {
        fill: #111;
      }
    </style>
  <g id="Background">
    <rect class="cls-4" width="100%" height="100%"/>
  </g>
  <g id="Blue">
    <polygon class="cls-1" points="272.35 234.61 232.35 276.65 232.35 331.61 334.35 315.61 272.35 234.61"/>
    <polygon class="cls-2" points="272.35 234.61 334.35 234.61 334.35 315.61 272.35 234.61"/>
    <polygon class="cls-3" points="232.35 331.61 334.35 315.61 289.35 411.61 238.35 426.61 232.35 331.61"/>
    <polygon class="cls-3" points="334.35 234.61 378.35 194.61 399.97 271.57 334.35 315.61 334.35 234.61"/>
    <polygon class="cls-2" points="232.35 331.61 188.35 382.61 202.35 451.61 238.35 426.61 232.35 331.61"/>
    <polygon class="cls-1" points="378.35 194.61 417.35 189.61 470.19 234.61 466.35 318.61 399.97 271.57 378.35 194.61"/>
    <polygon class="cls-1" points="334.35 315.61 349.35 409.61 321.35 382.61 289.35 411.61 334.35 315.61"/>
    <polygon class="cls-3" points="334.35 315.61 406.67 318.61 413.35 379.61 367.16 430.81 349.35 409.61 334.35 315.61"/>
    <polygon class="cls-1" points="406.67 318.61 466.35 318.61 468.48 320.62 413.35 379.61 406.67 318.61"/>
    <polygon class="cls-2" points="399.97 271.57 466.35 318.61 406.67 318.61 334.35 315.61 399.97 271.57"/>
    <polygon class="cls-2" points="470.19 234.61 466.35 318.61 562.35 263.61 514.35 230.61 470.19 234.61"/>
    <polygon class="cls-1" points="289.35 411.61 289.35 462.39 232.35 473.17 202.35 451.61 238.35 426.61 289.35 411.61"/>
    <polygon class="cls-3" points="341.44 462.39 289.35 462.39 289.35 411.61 341.44 462.39"/>
    <polygon class="cls-3" points="232.35 527.38 275.85 572.27 289.35 462.39 232.35 473.17 232.35 527.38"/>
    <polygon class="cls-2" points="341.44 462.39 368.57 490.87 280.35 535.61 289.35 462.39 341.44 462.39"/>
    <polygon class="cls-1" points="275.85 572.27 280.35 535.61 368.57 490.87 373.35 539.61 329.35 573.61 275.85 572.27"/>
    <polygon class="cls-3" points="368.57 490.87 426.15 430.81 470.35 518.61 432.35 555.61 373.35 539.61 368.57 490.87"/>
    <polygon class="cls-2" points="329.35 573.61 368.35 610.39 442.35 606.61 432.35 555.61 373.35 539.61 329.35 573.61"/>
    <polygon class="cls-1" points="470.35 518.61 432.35 555.61 442.35 606.61 470.19 572.27 470.35 518.61"/>
    <polygon class="cls-2" points="470.19 381.25 426.15 430.81 470.35 518.61 512.55 473.17 518.25 427.89 470.19 426.61 470.19 381.25"/>
    <polygon class="cls-2" points="470.19 572.27 518.25 572.27 561.02 546.01 516.15 512.61 470.35 518.61 470.19 572.27"/>
    <polygon class="cls-3" points="512.55 473.17 570.15 473.17 575.35 503.61 561.02 546.01 516.15 512.61 470.35 518.61 512.55 473.17"/>
    <polygon class="cls-1" points="466.35 318.61 468.48 320.62 500.35 350.61 570.15 334.61 562.35 263.61 466.35 318.61"/>
    <polygon class="cls-3" points="470.19 381.25 500.35 350.61 570.15 334.61 518.25 427.89 470.19 426.61 470.19 381.25"/>
    <polygon class="cls-1" points="512.55 473.17 570.15 473.17 611.65 427.89 518.25 427.89 512.55 473.17"/>
    <polygon class="cls-2" points="570.15 334.61 605.35 369.61 611.65 427.89 518.25 427.89 570.15 334.61"/>
  </g>
</svg>